<svg width="150" height="150" viewBox="0 0 150 150" fill="none" xmlns="http://www.w3.org/2000/svg">
<circle cx="75" cy="75" r="75" fill="#E7FFF3"/>
<mask id="mask0_1340_37396" style="mask-type:alpha" maskUnits="userSpaceOnUse" x="32" y="32" width="86" height="86">
<rect x="32" y="32" width="86" height="86" fill="#D9D9D9"/>
</mask>
<g mask="url(#mask0_1340_37396)">
<path d="M94.8873 73.1186L84.1076 62.2791L87.2727 59.1438L94.8873 66.7584L110.116 51.5292L113.286 54.7541L94.8873 73.1186ZM64.2498 73.8606C60.7906 73.8606 57.9082 72.7079 55.6028 70.4025C53.2974 68.0971 52.1447 65.2147 52.1447 61.7554C52.1447 58.2809 53.2974 55.3948 55.6028 53.097C57.9082 50.7993 60.7906 49.6504 64.2498 49.6504C67.709 49.6504 70.5914 50.7993 72.8968 53.097C75.2022 55.3948 76.3549 58.2809 76.3549 61.7554C76.3549 65.2147 75.2022 68.0971 72.8968 70.4025C70.5914 72.7079 67.709 73.8606 64.2498 73.8606ZM37.375 101.186V93.9962C37.375 92.2168 37.8516 90.5794 38.8047 89.0841C39.758 87.5888 41.0884 86.4514 42.7959 85.6719C46.7176 83.8864 50.4016 82.5879 53.8478 81.7762C57.2941 80.9646 60.7614 80.5588 64.2498 80.5588C67.7382 80.5588 71.1994 80.9646 74.6334 81.7762C78.0674 82.5879 81.7453 83.8864 85.667 85.6719C87.3744 86.4912 88.7109 87.6386 89.6764 89.114C90.642 90.5894 91.1247 92.2168 91.1247 93.9962V101.186H37.375Z" fill="#14A861"/>
</g>
</svg>
